<svg version="1.1" id="logo_svg_1" xmlns="http://www.w3.org/2000/svg" xmlns:xlink="http://www.w3.org/1999/xlink" x="0px" y="0px" width="255px" height="50px" viewBox="60 35 800 160" enable-background="60 20 800 200" xml:space="preserve">
    <path fill="#FFFFFF" d="M226.496,150.268c0.012-0.008,0.02-0.008,0.026-0.014c0.069-0.06,0.16-0.14,0.216-0.18L226.496,150.268z
            M262.146,146.06h0.007v0.003L262.146,146.06z"/>
    <g>
        <path fill="#414141" d="M147.257,172.424v9.405h-5.272v-9.405l-10.017-13.52h5.597l7.036,9.78l7.057-9.78h5.577L147.257,172.424z"
                />
        <path fill="#414141" d="M169.339,170.171c0-3.265,1.159-6.026,3.478-8.286c2.318-2.258,5.417-3.388,9.297-3.388
                c4.271,0,7.536,1.022,9.794,3.067s3.387,4.914,3.387,8.606s-1.18,6.624-3.539,8.794c-2.359,2.17-5.708,3.256-10.048,3.256
                c-3.988,0-7.046-1.074-9.176-3.225C170.404,176.848,169.339,173.906,169.339,170.171z M174.814,170.171
                c0,2.681,0.588,4.757,1.764,6.228c1.176,1.472,2.886,2.207,5.13,2.207c2.636,0,4.647-0.72,6.033-2.16
                c1.386-1.439,2.079-3.53,2.079-6.274c0-5.372-2.569-8.06-7.706-8.06c-2.353,0-4.157,0.729-5.415,2.184
                C175.443,165.75,174.814,167.709,174.814,170.171z"/>
        <path fill="#414141" d="M210.341,158.904h5.272v15.539c0,1.23,0.487,2.232,1.46,3.004c0.973,0.772,2.312,1.158,4.015,1.158
                c1.906,0,3.39-0.378,4.451-1.135c1.062-0.756,1.592-1.791,1.592-3.105v-15.461h5.272v15.773c0,2.357-1.024,4.204-3.072,5.539
                c-2.048,1.336-4.782,2.004-8.202,2.004c-3.447,0-6.107-0.652-7.979-1.957c-1.873-1.303-2.809-3.171-2.809-5.602V158.904z"/>
        <path fill="#414141" d="M265.619,181.829l-7.928-9.468c-0.798-0.01-1.913-0.047-3.346-0.109v9.577h-5.475v-22.925
                c0.297,0,1.44-0.039,3.427-0.117s3.589-0.117,4.806-0.117c7.543,0,11.315,2.253,11.315,6.76c0,1.355-0.521,2.592-1.561,3.709
                c-1.042,1.115-2.353,1.903-3.934,2.362l8.78,10.328H265.619z M254.345,162.44v6.369c0.974,0.063,1.717,0.094,2.23,0.094
                c2.204,0,3.815-0.239,4.836-0.72c1.021-0.48,1.531-1.414,1.531-2.801c0-1.127-0.548-1.914-1.643-2.363
                c-1.095-0.448-2.819-0.673-5.171-0.673C255.562,162.347,254.966,162.378,254.345,162.44z"/>
        <path fill="#414141" d="M327,182.143l-14.417-14.507v14.209h-5.07v-22.94h2.535l14.032,13.833v-13.833h5.069v23.238H327z"/>
        <path fill="#414141" d="M350.888,162.52v5.367h9.814v3.458h-9.814v6.87h13.464v3.614h-18.737v-22.925h18.96v3.615H350.888z"/>
        <path fill="#414141" d="M403.569,182.143H401.4l-6.489-14.46l-6.306,14.46h-2.17l-9.753-23.238h5.495l5.577,13.833l6.022-13.833
                h2.312l6.043,13.833l5.556-13.833h5.495L403.569,182.143z"/>
        <path fill="#414141" d="M425.287,180.562l1.947-3.646c2.082,1.126,4.13,1.689,6.144,1.689c3.096,0,4.644-0.834,4.644-2.504
                c0-0.782-0.365-1.527-1.095-2.238c-0.73-0.709-2.234-1.504-4.512-2.386c-2.278-0.882-3.813-1.606-4.603-2.175
                c-0.791-0.568-1.399-1.244-1.825-2.027c-0.426-0.781-0.639-1.647-0.639-2.598c0-1.773,0.841-3.244,2.524-4.412
                s3.843-1.753,6.479-1.753c3.434,0,5.955,0.495,7.563,1.487l-1.602,3.505c-1.852-1.022-3.805-1.534-5.86-1.534
                c-1.216,0-2.159,0.248-2.829,0.744c-0.669,0.495-1.004,1.14-1.004,1.932c0,1.314,1.886,2.682,5.658,4.101
                c1.987,0.751,3.42,1.442,4.299,2.073s1.548,1.367,2.008,2.207c0.459,0.84,0.689,1.775,0.689,2.809c0,1.857-0.95,3.385-2.849,4.585
                c-1.899,1.2-4.444,1.8-7.635,1.8C430.019,182.221,427.518,181.668,425.287,180.562z"/>
        <path fill="#414141" d="M498.551,181.829l-2.17-4.647h-10.179l-2.068,4.647h-5.86l11.842-23.238h2.313l11.943,23.238H498.551z
                M491.271,165.602l-3.568,8.466h7.137L491.271,165.602z"/>
        <path fill="#414141" d="M517.896,158.904h5.272v15.539c0,1.23,0.487,2.232,1.46,3.004c0.973,0.772,2.312,1.158,4.016,1.158
                c1.906,0,3.389-0.378,4.45-1.135c1.062-0.756,1.592-1.791,1.592-3.105v-15.461h5.272v15.773c0,2.357-1.024,4.204-3.072,5.539
                c-2.048,1.336-4.782,2.004-8.202,2.004c-3.447,0-6.107-0.652-7.979-1.957c-1.873-1.303-2.809-3.171-2.809-5.602V158.904z"/>
        <path fill="#414141" d="M568.509,162.52v19.31h-5.271v-19.31h-9.45v-3.615h24.598v3.615H568.509z"/>
        <path fill="#414141" d="M609.309,181.829v-10.328h-11.822v10.328h-5.271v-22.925h5.271v8.982h11.822v-8.982h5.212v22.925H609.309z"
                />
        <path fill="#414141" d="M629.566,170.171c0-3.265,1.159-6.026,3.478-8.286c2.318-2.258,5.418-3.388,9.298-3.388
                c4.271,0,7.536,1.022,9.794,3.067s3.387,4.914,3.387,8.606s-1.18,6.624-3.539,8.794c-2.358,2.17-5.708,3.256-10.047,3.256
                c-3.988,0-7.047-1.074-9.176-3.225C630.631,176.848,629.566,173.906,629.566,170.171z M635.042,170.171
                c0,2.681,0.588,4.757,1.764,6.228c1.176,1.472,2.886,2.207,5.131,2.207c2.636,0,4.646-0.72,6.032-2.16
                c1.386-1.439,2.078-3.53,2.078-6.274c0-5.372-2.568-8.06-7.705-8.06c-2.353,0-4.157,0.729-5.414,2.184
                C635.67,165.75,635.042,167.709,635.042,170.171z"/>
        <path fill="#414141" d="M687.317,181.829l-7.929-9.468c-0.798-0.01-1.913-0.047-3.346-0.109v9.577h-5.475v-22.925
                c0.297,0,1.439-0.039,3.427-0.117s3.589-0.117,4.806-0.117c7.544,0,11.315,2.253,11.315,6.76c0,1.355-0.521,2.592-1.562,3.709
                c-1.041,1.115-2.353,1.903-3.934,2.362l8.78,10.328H687.317z M676.043,162.44v6.369c0.974,0.063,1.717,0.094,2.23,0.094
                c2.203,0,3.815-0.239,4.837-0.72c1.021-0.48,1.53-1.414,1.53-2.801c0-1.127-0.547-1.914-1.643-2.363
                c-1.095-0.448-2.818-0.673-5.171-0.673C677.26,162.347,676.665,162.378,676.043,162.44z"/>
        <path fill="#414141" d="M706.42,181.829v-22.925h5.271v22.925H706.42z"/>
        <path fill="#414141" d="M740.344,162.52v19.31h-5.271v-19.31h-9.45v-3.615h24.598v3.615H740.344z"/>
        <path fill="#414141" d="M776.398,172.424v9.405h-5.271v-9.405l-10.018-13.52h5.597l7.036,9.78l7.057-9.78h5.576L776.398,172.424z"
                />
    </g>
    <path fill="#0066B4" d="M189.428,86.188l-14.787,39.808l-14.383-39.808h-10.938l-11.343,57.122h11.747l6.485-35.55l13.163,35.55
            h10.127l13.173-35.752l6.883,35.752h11.138l-10.324-57.122H189.428z M108,114.643v10.54h18.027c0,0-3.85,9.924-17.218,9.924
            c0,0-20.254,0.811-22.078-19.85c0,0-1.622-15.396,16.205-20.461c0,0,14.38-3.443,24.107,7.495l8.3-7.898
            c0,0-8.099-10.333-27.146-11.246c0,0-33.417,0.309-33.417,32.209v0.608c0,0,0.194,28.666,34.025,30.081
            c0,0,11.753,0.406,20.869-6.887c9.114-7.291,9.821-19.443,9.821-24.515H108z M249.182,86.188H237.23l-23.91,57.122h12.163
            l4.961-11.646h25.58l4.905,11.646h12.76L249.182,86.188z M234.933,121.126l8.376-19.643l8.28,19.643H234.933z"/>
    <linearGradient id="GNO_SVGID_1_" gradientUnits="userSpaceOnUse" x1="265.5254" y1="55.5137" x2="288.7512" y2="95.242">
        <stop  offset="0" style="stop-color:#EA2227"/>
        <stop  offset="0.2472" style="stop-color:#FDED1D"/>
        <stop  offset="0.4888" style="stop-color:#0DB04B"/>
        <stop  offset="0.7191" style="stop-color:#23B6EA"/>
        <stop  offset="1" style="stop-color:#EA2227"/>
    </linearGradient>
    <path fill="url(#GNO_SVGID_1_)" d="M266.713,61.965c0,0-12.586-2.813-16.734,1.777c-4.15,4.592,0.885,12.295,6.521,15.702
            c5.625,3.404,11.848,8.738,22.804,10.81c0,0,5.035,1.927,7.403-7.706c2.373-9.623,7.114-35.244-1.327-35.541
            c-8.446-0.296-11.852,21.032-11.852,21.032s-1.187-27.996,12.589-28.289c13.777-0.3,15.553,29.474,15.406,38.356
            c-0.151,8.89-3.705,27.104-22.663,20.736c-18.957-6.368-52.286-34.767-44.875-45.021C239.761,45.819,266.713,61.965,266.713,61.965z
            "/>
    <path fill="#231F20" d="M550.471,114.829c0-8.101,2.523-14.954,7.568-20.558c5.043-5.603,11.787-8.404,20.229-8.404
            c9.295,0,16.397,2.537,21.311,7.609c4.911,5.073,7.368,12.192,7.368,21.354c0,9.166-2.567,16.441-7.7,21.823
            s-12.42,8.073-21.861,8.073c-8.676,0-15.332-2.666-19.964-7.998C552.788,131.395,550.471,124.095,550.471,114.829z M562.384,114.829
            c0,6.652,1.28,11.806,3.84,15.453s6.278,5.478,11.161,5.478c5.736,0,10.111-1.786,13.125-5.358
            c3.016-3.576,4.523-8.764,4.523-15.572c0-13.328-5.59-19.995-16.766-19.995c-5.119,0-9.045,1.806-11.78,5.417
            C563.752,103.862,562.384,108.722,562.384,114.829z"/>
    <path fill="#231F20" d="M657.684,144.529l-31.367-35.99v35.254h-11.032V86.876h5.515l30.533,34.322V86.876h11.027v57.653H657.684z"
            />
    <path fill="#231F20" d="M673.791,143.756v-56.88h11.471v47.907h29.207v8.973H673.791z"/>
    <path fill="#231F20" d="M722.236,143.756v-56.88h11.47v56.88H722.236z"/>
    <path fill="#231F20" d="M787.759,144.529l-31.369-35.99v35.254h-11.031V86.876h5.514l30.533,34.322V86.876h11.027v57.653H787.759z"
            />
    <path fill="#231F20" d="M815.333,95.844v13.317h21.352v8.581h-21.352v17.041h29.293v8.973h-40.764v-56.88h41.254v8.968H815.333z"/>
    <path fill="#CB0001" d="M351.834,143.631l-30.888-35.439v35.239h-10.862v-56.57h5.432l30.063,33.796V86.861h10.859v56.77H351.834z"
            />
    <path fill="#CB0001" d="M378.988,95.692v13.113h21.027v8.45h-21.027v16.779h28.847v8.835h-40.142V86.861h40.621v8.831H378.988z"/>
    <path fill="#CB0001" d="M467.921,143.631h-4.647l-13.902-35.324l-13.511,35.324h-4.648l-20.896-56.77h11.774l11.945,33.796
            l12.902-33.796h4.954l12.945,33.796l11.904-33.796h11.773L467.921,143.631z"/>
    <path fill="#CB0001" d="M490.516,139.775l4.17-8.91c4.459,2.748,8.848,4.129,13.162,4.129c6.634,0,9.949-2.043,9.949-6.117
            c0-1.912-0.781-3.732-2.346-5.467c-1.563-1.733-4.786-3.679-9.666-5.831c-4.881-2.154-8.168-3.925-9.861-5.314
            c-1.695-1.389-2.998-3.04-3.91-4.952c-0.914-1.912-1.369-4.025-1.369-6.346c0-4.332,1.803-7.926,5.409-10.78
            c3.606-2.854,8.233-4.282,13.881-4.282c7.354,0,12.757,1.211,16.204,3.632l-3.432,8.565c-3.969-2.498-8.154-3.748-12.556-3.748
            c-2.607,0-4.626,0.605-6.061,1.815c-1.435,1.212-2.15,2.786-2.15,4.723c0,3.211,4.041,6.55,12.12,10.014
            c4.259,1.835,7.326,3.526,9.211,5.068c1.883,1.54,3.315,3.34,4.3,5.39c0.983,2.053,1.479,4.338,1.479,6.864
            c0,4.538-2.037,8.271-6.104,11.199c-4.07,2.929-9.522,4.396-16.358,4.396C500.65,143.822,495.293,142.473,490.516,139.775z"/>
    <!--                <g>
        <path fill="#414141" d="M776.604,78.851h-7.087V60.979c3.121-0.114,5.31-0.171,6.564-0.171c2.404,0,4.284,0.397,5.64,1.19
                s2.033,1.927,2.033,3.4c0,1.416-0.971,2.535-2.911,3.357c2.879,0.773,4.318,2.368,4.318,4.785c0,1.628-0.796,2.92-2.389,3.876
                C781.181,78.373,779.124,78.851,776.604,78.851z M773.629,63.518v4.285c0.633,0.033,1.298,0.049,1.993,0.049
                c2.679,0,4.019-0.777,4.019-2.332c0-1.375-1.218-2.063-3.654-2.063C775.343,63.457,774.558,63.477,773.629,63.518z M773.629,70.281
                v5.909c0.833,0.057,1.509,0.085,2.025,0.085c1.835,0,3.166-0.24,3.994-0.72c0.828-0.48,1.242-1.278,1.242-2.393
                c0-1.017-0.386-1.758-1.155-2.222s-2.114-0.696-4.034-0.696C775.301,70.244,774.61,70.256,773.629,70.281z"/>
        <path fill="#414141" d="M792.912,63.787v4.187h7.657v2.698h-7.657v5.359h10.504v2.82H788.8V60.966h14.791v2.82H792.912z"/>
        <path fill="#414141" d="M816.657,63.787v15.064h-4.112V63.787h-7.372v-2.82h19.188v2.82H816.657z"/>
        <path fill="#414141" d="M840.576,78.851l-1.693-3.625h-7.94l-1.614,3.625h-4.571l9.238-18.128h1.804l9.317,18.128H840.576z
                M834.896,66.191l-2.784,6.604h5.568L834.896,66.191z"/>
    </g>-->
</svg>
